<?xml version="1.0" encoding="utf-8"?>
<!-- Generator: Adobe Illustrator 17.1.0, SVG Export Plug-In . SVG Version: 6.00 Build 0)  -->
<!DOCTYPE svg PUBLIC "-//W3C//DTD SVG 1.0//EN" "http://www.w3.org/TR/2001/REC-SVG-20010904/DTD/svg10.dtd">
<svg version="1.0" xmlns="http://www.w3.org/2000/svg" xmlns:xlink="http://www.w3.org/1999/xlink" x="0px" y="0px"
	 viewBox="0 0 80.6 120.9" enable-background="new 0 0 80.6 120.9" xml:space="preserve">
<g id="Kropp" display="none">
	<g display="inline">
		<path d="M24.2,84.9c-11.1,5.6-18,16.8-18,29.3c0,0.6,0.5,1.1,1.2,1.1s1.2-0.5,1.2-1.1c0-11.6,6.4-22,16.7-27.2
			c0.6-0.3,0.8-1,0.5-1.5C25.5,84.9,24.8,84.6,24.2,84.9z"/>
		<path d="M57.9,85.3c-0.6-0.3-1.3-0.1-1.5,0.5c-0.3,0.6-0.1,1.3,0.5,1.5c10.2,5.3,16.6,15.7,16.6,27.2c0,0.6,0.5,1.1,1.2,1.1
			s1.2-0.5,1.2-1.1C75.8,102.2,69,91,57.9,85.3z"/>
	</g>
</g>
<g id="Huvud" display="none">
	<path display="inline" d="M47,68.9c-1.8,1.4-4,2.1-6.2,2.1c-2.5,0-4.9-0.9-6.7-2.5c-0.5-0.4-1.2-0.4-1.6,0.1
		c-0.4,0.5-0.4,1.2,0.1,1.6c2.3,2,5.2,3.1,8.2,3.1c2.8,0,5.4-0.9,7.6-2.5c0.5-0.4,0.6-1.1,0.2-1.6C48.2,68.7,47.5,68.6,47,68.9z"/>
	<path display="inline" d="M68.5,57.5c0-15.4-12.6-28-28-28s-28,12.6-28,28s12.6,28,28,28S68.5,72.9,68.5,57.5z M66.1,57.5
		c0,14.1-11.5,25.6-25.6,25.6S14.9,71.6,14.9,57.5s11.5-25.6,25.6-25.6S66.1,43.3,66.1,57.5z"/>
	<circle display="inline" cx="31.4" cy="54.5" r="2"/>
	<circle display="inline" cx="50.4" cy="54.5" r="2"/>
</g>
<g id="Hipstermössa" display="none">
	<g display="inline">
		<path d="M14.8,46.6c-0.6,0-1-0.4-1.1-1c-0.1-0.6,0.3-1.2,1-1.3l47.7-7.6c0.6-0.1,1.2,0.3,1.3,1c0.1,0.6-0.3,1.2-1,1.3L15,46.6
			C14.9,46.6,14.9,46.6,14.8,46.6z"/>
	</g>
</g>
<g id="Top_hat" display="none">
	<g display="inline">
		<polygon fill="#FFFFFF" points="21.7,25 21.7,32.7 15.4,32.7 15.4,38 65.4,38 65.4,33 57.2,33 57.2,17.5 23.1,16.6 23.1,25 		"/>
		<path d="M58.9,31.8v-5.3V5.9H21.7v20.7v5.3h-7.7v7h6.2h40h6.2v-7H58.9z M23.7,7.9h33.2v18.7H23.7V7.9z M56.9,28.5v3.3H23.7v-3.3
			H56.9z M64.6,36.9h-4.2h-40h-4.2v-3h5.7h2h33.2h2h5.7V36.9z"/>
	</g>
</g>
<g id="Propellerhatt" display="none">
	<path display="inline" d="M55.2,33.7c-4.2-2.6-9-4-14-4.1v-3.5c1.1,0.5,2.6,0.7,4,0.7c2.9,0,6-0.9,6-2.9c0-2-3.1-2.9-6-2.9
		c-1.9,0-3.8,0.4-5,1.2c-1.1-0.8-3.1-1.2-5-1.2c-2.9,0-6,0.9-6,2.9c0,2,3.1,2.9,6,2.9c1.4,0,2.8-0.2,4-0.7v3.6
		c-4.5,0.2-8.9,1.5-12.8,3.8l-0.8,0.5l0.4,0.8c2,4.2,8,7.1,14.8,7.1c6.6,0,12.5-2.7,14.7-6.8l0.4-0.8L55.2,33.7z M45.2,22.9
		c2.3,0,3.6,0.6,3.9,0.9c-0.3,0.3-1.7,0.9-3.9,0.9s-3.6-0.6-3.9-0.9C41.6,23.5,43,22.9,45.2,22.9z M35.3,24.7
		c-2.3,0-3.6-0.6-3.9-0.9c0.3-0.3,1.7-0.9,3.9-0.9s3.6,0.6,3.9,0.9C38.9,24.1,37.5,24.7,35.3,24.7z M40.9,39.9
		c-5.5,0-10.5-2.1-12.6-5.1c0.1-0.1,0.2-0.1,0.3-0.2c0.2-0.1,0.4-0.2,0.7-0.3c0.3-0.1,0.6-0.3,0.8-0.4c0.2-0.1,0.5-0.2,0.7-0.3
		c0.3-0.1,0.6-0.2,0.9-0.3c0.2-0.1,0.5-0.2,0.7-0.2c0.3-0.1,0.6-0.2,0.9-0.3c0.2-0.1,0.5-0.1,0.7-0.2c0.3-0.1,0.6-0.2,0.9-0.2
		c0.2-0.1,0.5-0.1,0.7-0.2c0.3-0.1,0.7-0.1,1-0.2c0.2,0,0.4-0.1,0.6-0.1c0.4,0,0.7-0.1,1.1-0.1c0.2,0,0.4,0,0.5-0.1
		c0.6,0,1.1-0.1,1.7-0.1c0.6,0,1.2,0,1.7,0.1c0.2,0,0.4,0,0.6,0.1c0.4,0,0.8,0.1,1.1,0.1c0.2,0,0.4,0.1,0.7,0.1
		c0.3,0.1,0.7,0.1,1,0.2c0.2,0,0.5,0.1,0.7,0.2c0.3,0.1,0.6,0.2,1,0.2c0.2,0.1,0.5,0.1,0.7,0.2c0.3,0.1,0.6,0.2,0.9,0.3
		c0.2,0.1,0.5,0.2,0.7,0.3c0.3,0.1,0.6,0.2,0.9,0.4c0.2,0.1,0.5,0.2,0.7,0.3c0.3,0.1,0.6,0.3,0.9,0.4c0.2,0.1,0.5,0.2,0.7,0.4
		c0.1,0.1,0.2,0.1,0.4,0.2C51.2,37.9,46.3,39.9,40.9,39.9z"/>
</g>
<g id="Knut" display="none">
	<g display="inline">
		<path d="M64.3,47.4h-21l-2.6-2.2l-2.4,2.2H16.8c-0.6,0-1.1-0.5-1.1-1.1s0.5-1.1,1.1-1.1h20.6l3.3-3l3.5,3h20.2
			c0.6,0,1.1,0.5,1.1,1.1S64.9,47.4,64.3,47.4z"/>
	</g>
	<g display="inline">
		<path d="M53.3,34.5c-0.6,0-1.1-0.5-1.1-1.1c0-6.3-5.2-11.5-11.5-11.5S29.2,27,29.2,33.4c0,0.6-0.5,1.1-1.1,1.1s-1.1-0.5-1.1-1.1
			c0-7.6,6.2-13.8,13.8-13.8c7.6,0,13.8,6.2,13.8,13.8C54.4,34,53.9,34.5,53.3,34.5z"/>
	</g>
</g>
<g id="Sidbena" display="none">
	<g display="inline">
		<path d="M17.7,46.1c-0.6,0-1.1-0.5-1.1-1.2s0.5-1.2,1.1-1.2c23.6,0,34.7-10.2,34.8-10.3c0.5-0.4,1.2-0.4,1.6,0
			c0.4,0.5,0.4,1.2,0,1.6C53.6,35.5,42.3,46.1,17.7,46.1z"/>
	</g>
	<g display="inline">
		<path d="M63.9,45.7c-12.6,0-16.1-7.4-16.2-7.7c-0.3-0.6,0-1.3,0.6-1.5c0.6-0.3,1.3,0,1.5,0.6c0.1,0.3,3.1,6.4,14.2,6.4
			c0.6,0,1.1,0.5,1.1,1.2S64.5,45.7,63.9,45.7z"/>
	</g>
</g>
<g id="Runda_glasögon" display="none">
	<path display="inline" d="M66.2,50l-1.1-2L57.2,52c-1-2.9-3.8-5-7-5c-3.7,0-6.8,2.7-7.4,6.2c-1.4-0.6-2.8-0.4-3.9,0.1
		c-0.6-3.6-3.7-6.3-7.4-6.3c-3.3,0-6.2,2.2-7.1,5.2l-8.4-4.3l-1.1,2l9.1,4.7c0.1,4.1,3.4,7.3,7.5,7.3c3.6,0,6.7-2.6,7.3-6
		c0.6-0.5,2.3-1.5,4,0c0.7,3.4,3.7,6,7.3,6c4.1,0,7.5-3.4,7.5-7.5c0,0,0-0.1,0-0.1L66.2,50z M31.5,59.7c-2.9,0-5.2-2.3-5.2-5.2
		c0-2.9,2.3-5.2,5.2-5.2s5.2,2.3,5.2,5.2C36.7,57.4,34.3,59.7,31.5,59.7z M50.1,59.7c-2.9,0-5.2-2.3-5.2-5.2c0-2.9,2.3-5.2,5.2-5.2
		c2.9,0,5.2,2.3,5.2,5.2C55.3,57.4,53,59.7,50.1,59.7z"/>
</g>
<g id="Vanliga_glasögon" display="none">
	<path display="inline" d="M66.7,49.6l-0.6-2.5L59,50.4v-2.2H41.9v2.3c-0.5-0.1-1-0.1-1.4,0.1v-2.4H23.4v2.3L15.7,47l-1.5,2.2
		l9.3,4.4c0.5,4.2,4.1,7.5,8.5,7.5c4.5,0,8.2-3.5,8.5-7.8c0.4-0.2,1-0.3,1.5-0.1c0.3,4.4,4,7.9,8.5,7.9c4.5,0,8.1-3.4,8.5-7.8
		L66.7,49.6z M38,52.5c0,3.4-2.7,6.1-6.1,6.1c-3.4,0-6.1-2.7-6.1-6.1v-1.8H38V52.5z M56.6,52.5c0,3.4-2.7,6.1-6.1,6.1
		c-3.4,0-6.1-2.7-6.1-6.1v-1.8h12.2V52.5z"/>
</g>
<g id="Trötta_ögon" display="none">
	<g display="inline">
		<path d="M31.4,61.2c-2.1,0-3.7-1.2-4.4-2.1c-0.3-0.4-0.3-1.1,0.2-1.4c0.4-0.3,1.1-0.3,1.4,0.2c0.2,0.2,2,2.3,4.8,0.7
			c0.5-0.3,1.1-0.1,1.4,0.4c0.3,0.5,0.1,1.1-0.4,1.4C33.4,60.9,32.4,61.2,31.4,61.2z"/>
	</g>
	<g display="inline">
		<path d="M50.7,61.2c-0.9,0-1.9-0.2-3-0.8c-0.5-0.3-0.7-0.9-0.4-1.4c0.3-0.5,0.9-0.7,1.4-0.4c2.9,1.6,4.8-0.6,4.8-0.7
			c0.3-0.4,1-0.5,1.4-0.2s0.5,1,0.2,1.4C54.3,60,52.8,61.2,50.7,61.2z"/>
	</g>
</g>
<g id="Skägg" display="none">
	<path display="inline" d="M61.7,71.8c-2.7,2.6-4.5,0.5-5.4-1c-0.6-1.5-1.5-2.9-2.7-4.3c-3-3.2-7.2-4.8-12.8-4.8
		c-5.5,0-9.8,1.6-12.8,4.8c-0.9,1-1.6,2-2.1,3.1l0,0c0,0-2.7,5.7-6.8,2.3c-3.6-2.9,3,4.4,4.9,6.5c0,0.1,0,0.2,0,0.2l0.1,0.7l0.5,0.4
		c0.2,0.2,6,5,15.5,5c0,0,0,0,0,0c5.5,0,10.5-2.2,16.1-5.3l1.4-0.7h0.1c0,0,0-0.2,0-0.5C59.5,75.8,64.9,68.7,61.7,71.8z M40.8,76.6
		c-5.6,5.8-13.6,1.2-13.6,1.2c0-1.7,0.4-5.9,3.2-9c2.3-2.5,5.8-3.7,10.4-3.7c4.6,0,8,1.3,10.4,3.7c2.8,3,3.2,7.2,3.3,8.9
		C43.8,82,40.8,76.6,40.8,76.6z"/>
</g>
<g id="Mustasch" display="none">
	<g id="qe46qW_1_" display="inline">
		<g>
			<path fill="#FFFFFF" d="M49,63.7c-0.1,0.1-0.2,0.2-0.3,0.3c-0.5,0.5-1.1,0.7-1.8,0.6c-0.4-0.1-0.7-0.2-1.1-0.4
				c-0.6-0.2-1.1-0.5-1.7-0.8c-0.4-0.2-0.9-0.3-1.4-0.2c-0.6,0.1-1.1,0.3-1.6,0.7c-0.2,0.2-0.4,0.4-0.6,0.6
				c-0.2-0.2-0.4-0.4-0.6-0.6c-0.5-0.5-1.1-0.8-1.8-0.7c-0.5,0-1,0.2-1.5,0.4c-0.6,0.3-1.1,0.5-1.7,0.8c-0.4,0.2-0.8,0.3-1.3,0.2
				c-0.6-0.1-1.1-0.4-1.5-0.8c0,0,0-0.1-0.1-0.1c0,0,0,0-0.1,0c0,0.6,0.2,1.2,0.5,1.7c0.7,1.2,1.8,2.1,3.1,2.6
				c1.7,0.6,3.3,0.4,4.8-0.8c0.1-0.1,0.1-0.1,0.2,0c0.3,0.2,0.6,0.4,0.9,0.6c1.1,0.6,2.4,0.6,3.6,0.3c1.6-0.5,2.8-1.4,3.5-2.9
				C48.9,64.6,49,64.1,49,63.7z"/>
			<path d="M49,63.7c0,0.5-0.1,1-0.4,1.5c-0.7,1.5-2,2.4-3.5,2.9c-1.2,0.4-2.4,0.3-3.6-0.3c-0.3-0.2-0.6-0.4-0.9-0.6
				c-0.1-0.1-0.1-0.1-0.2,0c-1.4,1.2-3,1.4-4.8,0.8c-1.3-0.5-2.4-1.3-3.1-2.6c-0.3-0.5-0.5-1.1-0.5-1.7c0,0,0,0,0.1,0
				c0,0,0,0.1,0.1,0.1c0.4,0.4,0.9,0.8,1.5,0.8c0.4,0,0.9-0.1,1.3-0.2c0.6-0.2,1.1-0.5,1.7-0.8c0.5-0.2,1-0.4,1.5-0.4
				c0.7,0,1.3,0.3,1.8,0.7c0.2,0.2,0.4,0.4,0.6,0.6c0.2-0.2,0.4-0.4,0.6-0.6c0.4-0.4,0.9-0.7,1.6-0.7c0.5,0,0.9,0.1,1.4,0.2
				c0.6,0.2,1.1,0.5,1.7,0.8c0.4,0.1,0.7,0.3,1.1,0.4c0.7,0.1,1.3-0.1,1.8-0.6C48.8,63.8,48.9,63.7,49,63.7z"/>
		</g>
	</g>
</g>
<g id="Fräknar" display="none">
	<circle display="inline" cx="27" cy="64.7" r="0.8"/>
	<circle display="inline" cx="29" cy="62.4" r="0.8"/>
	<circle display="inline" cx="25.8" cy="61.8" r="0.8"/>
	<circle display="inline" cx="54.2" cy="64.7" r="0.8"/>
	<circle display="inline" cx="52.2" cy="62.4" r="0.8"/>
	<circle display="inline" cx="55.4" cy="61.8" r="0.8"/>
</g>
<g id="Fluga" display="none">
	<path display="inline" d="M47.9,88.3c-0.5,0-1,0.1-1.5,0.4l-3,1.7c-0.8-0.9-1.9-1.4-3.2-1.4c-1.3,0-2.4,0.5-3.2,1.4l-2.9-1.7
		c-0.5-0.3-1-0.4-1.5-0.4c-1.6,0-3,1.3-3,3v4.1c0,1.6,1.3,3,3,3c0.5,0,1-0.1,1.5-0.4l2.9-1.7c0.8,0.9,1.9,1.4,3.2,1.4
		c1.3,0,2.4-0.6,3.2-1.4l3,1.7c0.5,0.3,1,0.4,1.5,0.4c1.6,0,3-1.3,3-3v-4.1C50.8,89.6,49.5,88.3,47.9,88.3z M33.1,96
		c-0.4,0.2-1,0-1-0.6v-4.1c0-0.4,0.3-0.7,0.7-0.7c0.1,0,0.2,0,0.3,0.1l3,1.7c-0.1,0.3-0.1,0.6-0.1,0.9c0,0.3,0,0.6,0.1,0.9L33.1,96z
		 M48.5,95.4c0,0.6-0.6,0.8-1,0.6l-3-1.8c0.1-0.3,0.1-0.6,0.1-0.9c0-0.3,0-0.6-0.1-0.9l3.1-1.8c0.1-0.1,0.2-0.1,0.3-0.1
		c0.3,0,0.7,0.3,0.7,0.7V95.4z"/>
</g>
<g id="Skjorta" display="none">
	<g display="inline">
		<g>
			<path d="M40.5,100.9L23.1,86.5c-0.5-0.4-0.6-1.1-0.2-1.6c0.4-0.5,1.1-0.6,1.6-0.2l16,13.2l15.3-12.8c0.5-0.4,1.2-0.3,1.6,0.1
				c0.4,0.5,0.3,1.2-0.1,1.6L40.5,100.9z"/>
		</g>
		<g>
			<polygon fill="#FFFFFF" points="42.6,96.9 47.4,100.3 60.3,87.3 55.5,83.3 			"/>
			<path d="M47.5,101.8l-6.7-4.7l14.6-15.4l6.6,5.6L47.5,101.8z M44.3,96.7l2.9,2.1l11.3-11.4l-3-2.5L44.3,96.7z"/>
		</g>
		<g>
			<path d="M40.5,115.4c-0.6,0-1.1-0.5-1.1-1.2V99.4c0-0.6,0.5-1.2,1.1-1.2s1.1,0.5,1.1,1.2v14.8C41.7,114.8,41.1,115.4,40.5,115.4z
				"/>
		</g>
		<g>
			<polygon fill="#FFFFFF" points="38.4,96.9 33.6,100.3 20.8,86.9 25.5,83.3 			"/>
			<path d="M33.5,101.8L19.1,86.8l6.6-5.1l14.5,15.4L33.5,101.8z M22.5,87l11.3,11.8l2.9-2.1L25.4,84.8L22.5,87z"/>
		</g>
	</g>
</g>
<g id="Slips" display="none">
	<path display="inline" d="M43.6,112.6c-0.1-0.6-0.3-3.5-0.4-4.5c-0.1-1-1.1-13.6-1.1-14.4c0-0.8-0.6-0.6-0.6-0.6l-1.3,0v0l-1.1,0
		c0,0-0.6-0.2-0.6,0.6c0,0.8-1,13.4-1.1,14.4c-0.1,1-0.3,3.9-0.4,4.5c-0.1,0.6-0.1,0.7,0.2,1s3.1,3.9,3.1,3.9v0v0
		c0,0,2.8-3.5,3.1-3.9C43.7,113.3,43.7,113.2,43.6,112.6z"/>
	<path display="inline" d="M42.6,91c-0.5,1-0.6,1.3-1.3,1.3h-1.8c-0.7,0-0.9-0.4-1.3-1.3l-0.8-2.8c0-0.7,0.6-1.3,1.3-1.3h3.1
		c0.7,0,1.3,0.6,1.3,1.3L42.6,91z"/>
</g>
<g id="Penna">
	<g>
		<path d="M41.4,91.8c-6.3,0-12.4-1.7-17.2-4.9c-0.5-0.3-0.7-1.1-0.3-1.6c0.3-0.5,1.1-0.7,1.6-0.3c4.5,2.9,10.2,4.5,16,4.5
			c5.6,0,11-1.4,15.4-4.2c0.5-0.3,1.2-0.2,1.6,0.4c0.3,0.5,0.2,1.2-0.4,1.6C53.2,90.3,47.4,91.8,41.4,91.8z"/>
	</g>
	<g>
		<path d="M56.2,115.4l-5.6-5.2V102h11.2v8.6L56.2,115.4z M53,109.2l3.3,3.1l3.3-2.8v-5.2H53V109.2z"/>
	</g>
	<g>
		<polyline points="52.9,102.5 52.9,99.5 54.3,97.4 55.6,99.6 55.6,102.5 		"/>
	</g>
	<g>
		<rect x="56.6" y="94.3" width="2.9" height="8.9"/>
	</g>
</g>
<g id="T-shirt" display="none">
	<g display="inline">
		<path d="M41.4,91.8c-6.3,0-12.4-1.7-17.2-4.9c-0.5-0.3-0.7-1.1-0.3-1.6c0.3-0.5,1.1-0.7,1.6-0.3c4.5,2.9,10.2,4.5,16,4.5
			c5.6,0,11-1.4,15.4-4.2c0.5-0.3,1.2-0.2,1.6,0.4c0.3,0.5,0.2,1.2-0.4,1.6C53.2,90.3,47.4,91.8,41.4,91.8z"/>
	</g>
</g>
</svg>
