<?xml version="1.0" encoding="utf-8"?>
<!-- Generator: Adobe Illustrator 17.1.0, SVG Export Plug-In . SVG Version: 6.00 Build 0)  -->
<!DOCTYPE svg PUBLIC "-//W3C//DTD SVG 1.0//EN" "http://www.w3.org/TR/2001/REC-SVG-20010904/DTD/svg10.dtd">
<svg version="1.0" id="Layer_1" xmlns="http://www.w3.org/2000/svg" xmlns:xlink="http://www.w3.org/1999/xlink" x="0px" y="0px"
	 viewBox="0 0 700 700" enable-background="new 0 0 700 700" xml:space="preserve">
<g>
	<path fill="#FFFFFF" d="M408.7,533.1c-16.2,12.3-35.6,18.8-56.1,18.8c-22.4,0-44-8.1-60.9-22.7c-4.3-3.6-10.7-3.2-14.3,1
		c-3.6,4.2-3.2,10.7,1,14.3c20.6,17.8,46.9,27.6,74.2,27.6c24.9,0,48.5-7.9,68.3-22.8c4.5-3.4,5.4-9.7,2-14.3
		C419.5,530.7,413.1,529.8,408.7,533.1"/>
	<path fill="#FFFFFF" d="M292.7,404.5c0-9.8-7.9-17.7-17.7-17.7s-17.7,7.9-17.7,17.7s7.9,17.7,17.7,17.7
		C284.8,422.3,292.7,414.3,292.7,404.5"/>
	<path fill="#FFFFFF" d="M425,386.8c-9.8,0-17.7,7.9-17.7,17.7s7.9,17.7,17.7,17.7s17.7-7.9,17.7-17.7S434.7,386.8,425,386.8"/>
	<path fill="#FFFFFF" d="M425,445.2c-22.5,0-40.7-18.2-40.7-40.7c0-22.5,18.2-40.7,40.7-40.7c22.5,0,40.7,18.2,40.7,40.7
		C465.7,427,447.5,445.2,425,445.2 M350,681.9c-128.3,0-232.7-104.4-232.7-232.7c0-55.8,20-109.5,56.3-151.7h352.8
		c36.4,42.2,56.3,95.9,56.3,151.7c0,52.2-17.2,100.4-46.4,139.2c-5.7-96-43.8-144.9-57.9-159.8c3.3-7.3,5.2-15.6,5.2-24.1
		c0-32.4-26.3-58.7-58.7-58.7S366,372,366,404.5s26.3,58.7,58.7,58.7c17.1,0,32.4-7.3,43.1-19c14.8,17.4,49.9,68.6,50.7,164.7
		C476.5,653.9,416.4,681.9,350,681.9 M131.3,252.2h51h18h299.1h18h51v27.3h-34.1h-4.1H169.5h-4.1h-34.1V252.2z M499.5,234.2H200.4
		v-29.8h299.1V234.2z M200.4,18h299.1v168.3H200.4V18z M549.5,297.5h37.2v-63.4h-69.1v-47.8V0H182.4v186.3v47.8h-69.1v63.4h37.2
		c-33.1,43.5-51.2,96.6-51.2,151.7C99.3,587.5,211.8,700,350,700s250.8-112.5,250.8-250.8C600.7,394.2,582.6,341.1,549.5,297.5"/>
</g>
</svg>
