<?xml version="1.0" encoding="utf-8"?>
<!-- Generator: Adobe Illustrator 17.1.0, SVG Export Plug-In . SVG Version: 6.00 Build 0)  -->
<!DOCTYPE svg PUBLIC "-//W3C//DTD SVG 1.0//EN" "http://www.w3.org/TR/2001/REC-SVG-20010904/DTD/svg10.dtd">
<svg version="1.0" id="Layer_1" xmlns="http://www.w3.org/2000/svg" xmlns:xlink="http://www.w3.org/1999/xlink" x="0px" y="0px"
	 viewBox="0 0 700 700" enable-background="new 0 0 700 700" xml:space="preserve">
<g>
	<path fill="#FFFFFF" d="M354.5,622.6c-50,52.2-122.7,10.4-122.7,10.4c0.1-14.9,3.3-53.2,29.1-81.1c20.7-22.3,52.1-33.7,93.3-33.7
		c41.1,0,72.4,11.3,93.3,33.7c25.4,27.2,29.2,64.5,29.7,80.3C381.6,671,354.5,622.6,354.5,622.6 M131.5,370.2l54.6,25.4
		c4.7,38.8,37.8,68.9,77.9,68.9c41.1,0,74.8-31.7,78.2-72c3.9-2,8.7-3,13.8-0.6c3.1,40.5,36.9,72.6,78.2,72.6
		c41,0,74.7-31.6,78.2-71.7l55-25.7c9.7,25.6,15.1,53.4,15.1,82.3c0,48.3-14.8,93.1-40.1,130.4c-24,23.6-40.8,4.6-48.8-9.1
		c-5.5-13.2-13.3-26.5-24.5-38.6c-26.6-28.7-65.3-43.3-114.9-43.3c-49.8,0-88.5,14.5-114.9,43.3c-8.1,8.8-14.4,18.2-19.3,27.8V560
		c0,0-23.9,51.5-61.4,21c-25.7-37.4-40.9-82.7-40.9-131.4C117.5,421.7,122.5,395,131.5,370.2 M319.8,369.6V386
		c0,30.8-25.1,55.8-55.8,55.8s-55.8-25.1-55.8-55.8v-16.4H319.8z M490,369.6V386c0,30.8-25.1,55.8-55.8,55.8
		c-30.8,0-55.8-25.1-55.8-55.8v-16.4H490z M350,217c90.9,0,169.7,52.4,207.9,128.6l-45.2,21.1v-19.8h-157v21.2
		c-4.6-1.1-9-0.7-13.2,0.5v-21.7h-157v20.6l-44.1-20.5C179.3,270.2,258.6,217,350,217 M350,199.1c-138.1,0-250.5,112.3-250.5,250.5
		S211.9,700,350,700s250.5-112.3,250.5-250.5S488.1,199.1,350,199.1"/>
	<path fill="#FFFFFF" d="M262.2,422.6c9.8,0,17.7-7.9,17.7-17.7s-7.9-17.7-17.7-17.7c-9.8,0-17.7,7.9-17.7,17.7
		C244.5,414.7,252.5,422.6,262.2,422.6"/>
	<path fill="#FFFFFF" d="M435.6,422.6c9.8,0,17.7-7.9,17.7-17.7s-7.9-17.7-17.7-17.7s-17.7,7.9-17.7,17.7S425.8,422.6,435.6,422.6"
		/>
	<path fill="#FFFFFF" d="M411.3,557.4c-15.7,11.9-34.5,18.1-54.2,18.1c-21.6,0-42.5-7.8-58.9-21.9c-4.1-3.6-10.3-3.1-13.9,1
		c-3.6,4.1-3.1,10.3,1,13.9c19.9,17.2,45.4,26.7,71.7,26.7c24.1,0,46.9-7.6,66-22.1c4.3-3.3,5.2-9.5,1.9-13.7
		C421.7,555,415.5,554.2,411.3,557.4"/>
</g>
</svg>
