<?xml version="1.0" encoding="utf-8"?>
<!-- Generator: Adobe Illustrator 17.1.0, SVG Export Plug-In . SVG Version: 6.00 Build 0)  -->
<!DOCTYPE svg PUBLIC "-//W3C//DTD SVG 1.0//EN" "http://www.w3.org/TR/2001/REC-SVG-20010904/DTD/svg10.dtd">
<svg version="1.0" id="Layer_1" xmlns="http://www.w3.org/2000/svg" xmlns:xlink="http://www.w3.org/1999/xlink" x="0px" y="0px"
	 viewBox="0 0 700 700" enable-background="new 0 0 700 700" xml:space="preserve">
<g>
	<path fill="#FFFFFF" d="M408.7,533.6c-16.2,12.2-35.5,18.7-55.9,18.7c-22.3,0-43.8-8.1-60.7-22.6c-4.3-3.7-10.7-3.2-14.3,1
		c-3.7,4.3-3.2,10.7,1,14.3c20.5,17.9,46.7,27.6,73.9,27.6c24.8,0,48.3-7.9,68.1-22.8c4.4-3.4,5.5-9.7,2.1-14.2
		S413.1,530.2,408.7,533.6z"/>
	<path fill="#FFFFFF" d="M292.9,405.3c0-9.8-7.9-17.7-17.7-17.7c-9.8,0-17.7,8-17.7,17.7c0,9.8,8,17.7,17.7,17.7
		C285,423,292.9,415,292.9,405.3z"/>
	<path fill="#FFFFFF" d="M424.8,387.6c-9.8,0-17.7,8-17.7,17.7c0,9.8,8,17.7,17.7,17.7c9.8,0,17.7-8,17.7-17.7
		C442.5,395.5,434.6,387.6,424.8,387.6z"/>
	<path fill="#FFFFFF" d="M488.4,241.7l0.1-0.1l-7.1-4.4l-0.1-0.1l0.1-0.1c-2.4-1.5-4.8-2.9-7.3-4.3l-0.9-0.6l0,0
		c-35.9-20.3-76.2-31.4-117.5-32.4v-31.7c10.1,4.1,23.1,6,35.7,6c25.8,0,53.6-8.2,53.7-26.2c0-18-27.8-26.2-53.7-26.2
		c-16.8,0-34.4,3.5-44.7,10.8c-10.3-7.3-27.9-10.8-44.7-10.8c-25.9,0-53.7,8.2-53.7,26.2s27.8,26.2,53.7,26.2
		c12.6,0,25.6-1.9,35.7-6V200c-37.3,1.8-73.8,12-106.6,29.7l0,0l-0.9,0.5c-2.6,1.4-5.2,2.9-7.7,4.4l0.1,0.1
		c-1.1,0.6-2.1,1.3-3.1,1.9l-4,2.4l0.1,0.1C144,284.9,99.9,364.9,99.9,449.9C99.9,587.8,212.1,700,350,700s250.2-112.3,250.2-249.9
		C600.2,365.6,558.6,288.3,488.4,241.7z M358.3,217.9c1.2,0,2.5,0.1,3.7,0.2c0.2,0,0.3,0,0.5,0c1.2,0.1,2.3,0.1,3.5,0.2
		c0.2,0,0.4,0,0.6,0c1.1,0.1,2.2,0.2,3.4,0.3c0.2,0,0.4,0,0.7,0.1c1.1,0.1,2.2,0.2,3.3,0.3c0.2,0,0.5,0.1,0.7,0.1
		c1.1,0.1,2.1,0.2,3.2,0.4c0.3,0,0.5,0.1,0.8,0.1c1,0.1,2.1,0.3,3.1,0.4c0.3,0,0.5,0.1,0.8,0.1c1,0.1,2.1,0.3,3.1,0.5
		c0.3,0,0.5,0.1,0.8,0.1c1,0.2,2.1,0.3,3.1,0.5c0.3,0,0.5,0.1,0.8,0.1c1.1,0.2,2.1,0.4,3.2,0.6c0.2,0,0.4,0.1,0.7,0.1
		c1.1,0.2,2.3,0.5,3.4,0.7c0.1,0,0.3,0.1,0.4,0.1c2.6,0.5,5.2,1.1,7.7,1.8c0,0,0,0,0.1,0c1.2,0.3,2.5,0.6,3.7,0.9
		c0.3,0.1,0.6,0.2,0.9,0.3c0.9,0.3,1.9,0.5,2.8,0.8c0.4,0.1,0.8,0.2,1.2,0.3c0.9,0.2,1.7,0.5,2.6,0.8c0.4,0.1,0.8,0.3,1.2,0.4
		c0.8,0.3,1.7,0.5,2.5,0.8c0.4,0.1,0.8,0.3,1.2,0.4c0.9,0.3,1.7,0.6,2.6,0.9c0.3,0.1,0.7,0.2,1,0.4c0.9,0.3,1.8,0.6,2.8,1
		c0.3,0.1,0.5,0.2,0.8,0.3c1,0.4,2.1,0.8,3.1,1.1c0.2,0.1,0.3,0.1,0.5,0.2c10.9,4.1,21.4,9.1,31.6,14.9
		c-19.4,26.8-62.8,44.4-111.7,44.4c-49.7,0-94.6-18.8-113.1-46.4c9.5-5.1,19.3-9.6,29.3-13.4c0.6-0.2,1.2-0.5,1.8-0.7
		c1-0.4,1.9-0.7,2.9-1c1.6-0.5,3.1-1.1,4.7-1.6c0.6-0.2,1.1-0.4,1.7-0.5c2-0.6,3.9-1.2,5.9-1.8c0.1,0,0.2,0,0.3-0.1
		c20.7-5.9,42.2-8.9,63.9-9c2.7,0,5.3,0,8,0.1C358.1,217.8,358.2,217.8,358.3,217.9z M391.4,139.7c20.3,0,32.3,5.3,35.3,8.2
		c-3,2.9-15,8.2-35.3,8.2s-32.3-5.3-35.3-8.2C359,144.9,371.1,139.6,391.4,139.7z M302,156.1c-20.3,0-32.3-5.3-35.3-8.2
		c3-3,15-8.3,35.3-8.2c20.3,0,32.3,5.3,35.3,8.2C334.3,150.8,322.3,156.1,302,156.1z M350,682c-128,0-232.2-104.1-232.2-232.2
		c0-78.4,40.4-152.2,106.1-194.8c15.6,23.8,45.6,41.8,82.2,50.1c0.3,0.1,0.5,0.1,0.8,0.2c1.2,0.3,2.4,0.5,3.7,0.8
		c0.5,0.1,1,0.2,1.5,0.3c1.1,0.2,2.1,0.4,3.2,0.6c0.7,0.1,1.4,0.2,2.1,0.4c0.9,0.2,1.9,0.3,2.8,0.4c0.9,0.1,1.7,0.3,2.6,0.4
		c0.8,0.1,1.7,0.2,2.5,0.3c1,0.1,2,0.2,3.1,0.4c0.7,0.1,1.4,0.2,2.2,0.2c1.2,0.1,2.3,0.2,3.5,0.3c0.6,0.1,1.2,0.1,1.8,0.2
		c1.3,0.1,2.6,0.2,4,0.3c0.5,0,1,0.1,1.5,0.1c1.6,0.1,3.1,0.1,4.7,0.2c0.3,0,0.6,0,0.8,0c1.8,0,3.7,0.1,5.6,0.1c0,0,0,0,0.1,0
		c0,0,0,0,0,0c0.4,0,0.8,0,1.2,0c1.3,0,2.7,0,4-0.1c1.1,0,2.1-0.1,3.2-0.1c0.7,0,1.3,0,2-0.1c1.2-0.1,2.5-0.1,3.7-0.2
		c0.5,0,0.9-0.1,1.4-0.1c1.3-0.1,2.7-0.2,4-0.3c0.3,0,0.7-0.1,1-0.1c1.4-0.1,2.9-0.3,4.3-0.5c0.2,0,0.4,0,0.6-0.1
		c1.5-0.2,3.1-0.4,4.6-0.6c0.1,0,0.1,0,0.2,0c42.4-6.1,78.4-24.8,96.8-50.8c64.5,43.3,102.6,114.7,102.6,192.6
		C582.1,577.9,478,682,350,682z"/>
</g>
</svg>
