<?xml version="1.0" encoding="utf-8"?>
<!-- Generator: Adobe Illustrator 17.1.0, SVG Export Plug-In . SVG Version: 6.00 Build 0)  -->
<!DOCTYPE svg PUBLIC "-//W3C//DTD SVG 1.0//EN" "http://www.w3.org/TR/2001/REC-SVG-20010904/DTD/svg10.dtd">
<svg version="1.0" id="Layer_1" xmlns="http://www.w3.org/2000/svg" xmlns:xlink="http://www.w3.org/1999/xlink" x="0px" y="0px"
	 viewBox="0 0 700 700" enable-background="new 0 0 700 700" xml:space="preserve">
<g>
	<path fill="#FFFFFF" d="M354.5,1158.6c-50,52.2-122.7,10.4-122.7,10.4c0.1-14.9,3.3-53.2,29.1-81.1c20.7-22.3,52.1-33.7,93.3-33.7
		c41.1,0,72.4,11.3,93.3,33.7c25.4,27.2,29.2,64.5,29.7,80.3C381.6,1207,354.5,1158.6,354.5,1158.6 M131.5,906.2l54.6,25.4
		c4.7,38.8,37.8,68.9,77.9,68.9c41.1,0,74.8-31.7,78.2-72c3.9-2,8.7-3,13.8-0.6c3.1,40.5,36.9,72.6,78.2,72.6
		c41,0,74.7-31.6,78.2-71.7l55-25.7c9.7,25.6,15.1,53.4,15.1,82.3c0,48.3-14.8,93.1-40.1,130.4c-24,23.6-40.8,4.6-48.8-9.1
		c-5.5-13.2-13.3-26.5-24.5-38.6c-26.6-28.7-65.3-43.3-114.9-43.3c-49.8,0-88.5,14.5-114.9,43.3c-8.1,8.8-14.4,18.2-19.3,27.8v-0.1
		c0,0-23.9,51.5-61.4,21c-25.7-37.4-40.9-82.7-40.9-131.4C117.5,957.7,122.5,931,131.5,906.2 M319.8,905.6V922
		c0,30.8-25.1,55.8-55.8,55.8s-55.8-25.1-55.8-55.8v-16.4H319.8z M490,905.6V922c0,30.8-25.1,55.8-55.8,55.8
		c-30.8,0-55.8-25.1-55.8-55.8v-16.4H490z M350,753c90.9,0,169.7,52.4,207.9,128.6l-45.2,21.1v-19.8h-157v21.2
		c-4.6-1.1-9-0.7-13.2,0.5v-21.7h-157v20.6l-44.1-20.5C179.3,806.2,258.6,753,350,753 M350,735.1c-138.1,0-250.5,112.3-250.5,250.5
		S211.9,1236,350,1236s250.5-112.3,250.5-250.5S488.1,735.1,350,735.1"/>
	<path fill="#FFFFFF" d="M262.2,958.6c9.8,0,17.7-7.9,17.7-17.7s-7.9-17.7-17.7-17.7c-9.8,0-17.7,7.9-17.7,17.7
		C244.5,950.7,252.5,958.6,262.2,958.6"/>
	<path fill="#FFFFFF" d="M435.6,958.6c9.8,0,17.7-7.9,17.7-17.7s-7.9-17.7-17.7-17.7s-17.7,7.9-17.7,17.7S425.8,958.6,435.6,958.6"
		/>
	<path fill="#FFFFFF" d="M411.3,1093.4c-15.7,11.9-34.5,18.1-54.2,18.1c-21.6,0-42.5-7.8-58.9-21.9c-4.1-3.6-10.3-3.1-13.9,1
		c-3.6,4.1-3.1,10.3,1,13.9c19.9,17.2,45.4,26.7,71.7,26.7c24.1,0,46.9-7.6,66-22.1c4.3-3.3,5.2-9.5,1.9-13.7
		C421.7,1091,415.5,1090.2,411.3,1093.4"/>
</g>
<path fill="#FFFFFF" d="M349.7,218.7c127.7,0,231.2,103.5,231.2,231.2S477.4,681,349.7,681S118.5,577.5,118.5,449.8
	S222,218.7,349.7,218.7 M349.7,200.7c-33.6,0-66.3,6.6-97,19.6c-29.7,12.6-56.3,30.5-79.2,53.4c-22.9,22.9-40.8,49.5-53.4,79.2
	c-13,30.7-19.6,63.4-19.6,97s6.6,66.3,19.6,97c12.6,29.7,30.5,56.3,53.4,79.2c22.9,22.9,49.5,40.8,79.2,53.4
	c30.7,13,63.4,19.6,97,19.6s66.3-6.6,97-19.6c29.7-12.6,56.3-30.5,79.2-53.4c22.9-22.9,40.8-49.5,53.4-79.2
	c13-30.7,19.6-63.4,19.6-97s-6.6-66.3-19.6-97c-12.6-29.7-30.5-56.3-53.4-79.2c-22.9-22.9-49.5-40.8-79.2-53.4
	C415.9,207.3,383.3,200.7,349.7,200.7L349.7,200.7z"/>
<g>
	<path fill="#FFFFFF" d="M322.8,482.6c0-56.3,80.2-61.1,80.2-108.1c0-22.2-17.3-41.2-52.3-41.2c-33.2,0-54.1,14.6-70.4,36.3
		l-22.2-23.9c21.3-27.5,54.1-45.2,96.1-45.2c54.1,0,86.8,30.6,86.8,68.7c0,66.9-86,72.7-86,116.1c0,7.1,4.4,16,12,21.7l-27,11.5
		C328.1,508.3,322.8,495.9,322.8,482.6z M325,580.5c0-13.3,11.1-24.4,24.4-24.4c13.3,0,24.4,11.1,24.4,24.4
		c0,13.3-11.1,24.4-24.4,24.4C336.1,604.9,325,593.8,325,580.5z"/>
</g>
</svg>
