<?xml version="1.0" encoding="utf-8"?>
<!-- Generator: Adobe Illustrator 17.1.0, SVG Export Plug-In . SVG Version: 6.00 Build 0)  -->
<!DOCTYPE svg PUBLIC "-//W3C//DTD SVG 1.0//EN" "http://www.w3.org/TR/2001/REC-SVG-20010904/DTD/svg10.dtd">
<svg version="1.0" id="Layer_1" xmlns="http://www.w3.org/2000/svg" xmlns:xlink="http://www.w3.org/1999/xlink" x="0px" y="0px"
	 viewBox="0 0 689.1 962.8" enable-background="new 0 0 689.1 962.8" xml:space="preserve">
<g>
	<path fill="#FFFFFF" d="M425.3,733.3c-22.3,16.9-49,25.8-77.1,25.8c-30.8,0-60.5-11.1-83.7-31.2c-5.9-5-14.7-4.4-19.7,1.4
		c-5,5.8-4.4,14.7,1.4,19.7c28.3,24.5,64.5,38,102,38c34.2,0,66.7-10.9,93.9-31.4c6.2-4.7,7.4-13.4,2.7-19.6
		C440.2,729.9,431.4,728.7,425.3,733.3"/>
	<path fill="#FFFFFF" d="M265.8,556.4c0-13.5-10.9-24.4-24.4-24.4c-13.5,0-24.4,10.9-24.4,24.4c0,13.5,10.9,24.4,24.4,24.4
		C254.9,580.8,265.8,569.9,265.8,556.4"/>
	<path fill="#FFFFFF" d="M447.7,532c-13.5,0-24.4,10.9-24.4,24.4c0,13.5,10.9,24.4,24.4,24.4c13.5,0,24.4-10.9,24.4-24.4
		C472.1,542.9,461.1,532,447.7,532"/>
	<path fill="#FFFFFF" d="M447.7,612.4c-30.9,0-56-25.1-56-56c0-30.9,25.1-56,56-56c30.9,0,56,25.1,56,56
		C503.7,587.3,478.6,612.4,447.7,612.4 M344.5,937.9c-176.5,0-320.1-143.6-320.1-320.1c0-76.7,27.5-150.6,77.4-208.7h485.2
		c50,58.1,77.4,131.9,77.4,208.7c0,71.8-23.7,138.1-63.8,191.5c-7.8-132.1-60.3-199.3-79.6-219.8c4.6-10.1,7.2-21.4,7.2-33.2
		c0-44.6-36.2-80.8-80.8-80.8c-44.6,0-80.8,36.2-80.8,80.8c0,44.6,36.2,80.8,80.8,80.8c23.5,0,44.6-10.1,59.3-26.1
		c20.4,23.9,68.6,94.4,69.8,226.6C518.5,899.4,435.9,937.9,344.5,937.9 M43.8,346.9H114h24.8h411.4H575h70.2v37.5h-46.9h-5.6H96.3
		h-5.6H43.8V346.9z M550.2,322.1H138.8v-41h411.4V322.1z M138.8,24.8h411.4v231.5H138.8V24.8z M618.9,409.2h51.1v-87.2h-95v-65.8V0
		H114v256.3v65.8H19v87.2h51.1C24.6,469.1-0.3,542.2-0.3,617.9c0,190.2,154.7,344.9,344.9,344.9s344.9-154.7,344.9-344.9
		C689.4,542.2,664.5,469.1,618.9,409.2"/>
</g>
<g>
	<path fill="#FFFFFF" d="M350.7,1730c-68.8,71.8-168.7,14.3-168.7,14.3c0.2-20.5,4.5-73.2,40-111.5c28.5-30.7,71.6-46.3,128.3-46.3
		c56.5,0,99.6,15.6,128.3,46.4c34.9,37.4,40.2,88.7,40.8,110.5C388,1796.6,350.7,1730,350.7,1730 M44,1382.9l75.1,35
		c6.5,53.3,52,94.8,107.1,94.8c56.5,0,102.9-43.6,107.5-99c5.4-2.8,12-4.1,19-0.8c4.2,55.7,50.8,99.8,107.6,99.8
		c56.4,0,102.7-43.4,107.5-98.6l75.7-35.3c13.4,35.2,20.8,73.4,20.8,113.2c0,66.4-20.4,128.1-55.1,179.3
		c-33,32.5-56.1,6.3-67.1-12.5c-7.6-18.1-18.3-36.4-33.7-53.1c-36.6-39.5-89.8-59.5-158.1-59.5c-68.5,0-121.7,20-158.1,59.6
		c-11.2,12.1-19.8,25.1-26.6,38.3l0-0.1c0,0-32.9,70.9-84.5,28.9c-35.4-51.5-56.2-113.7-56.2-180.8C24.8,1453.7,31.6,1417,44,1382.9
		 M303,1382.1v22.5c0,42.4-34.5,76.8-76.8,76.8s-76.8-34.5-76.8-76.8v-22.5H303z M537.1,1382.1v22.5c0,42.4-34.5,76.8-76.8,76.8
		c-42.4,0-76.8-34.5-76.8-76.8v-22.5H537.1z M344.5,1172.2c125,0,233.4,72.1,285.9,176.9l-62.2,29v-27.2h-216v29.1
		c-6.3-1.5-12.4-1-18.1,0.7v-29.8h-216v28.4l-60.6-28.2C109.7,1245.3,218.8,1172.2,344.5,1172.2 M344.5,1147.5
		C154.6,1147.5,0,1302,0,1492c0,190,154.6,344.5,344.5,344.5S689.1,1682,689.1,1492C689.1,1302,534.5,1147.5,344.5,1147.5"/>
	<path fill="#FFFFFF" d="M223.8,1455c13.5,0,24.4-10.9,24.4-24.4c0-13.5-10.9-24.4-24.4-24.4c-13.5,0-24.4,10.9-24.4,24.4
		C199.4,1444.1,210.4,1455,223.8,1455"/>
	<path fill="#FFFFFF" d="M462.3,1455c13.5,0,24.4-10.9,24.4-24.4c0-13.5-10.9-24.4-24.4-24.4c-13.5,0-24.4,10.9-24.4,24.4
		C437.9,1444.1,448.8,1455,462.3,1455"/>
	<path fill="#FFFFFF" d="M428.8,1640.4c-21.6,16.3-47.4,24.9-74.5,24.9c-29.7,0-58.5-10.7-81-30.1c-5.6-4.9-14.2-4.3-19.1,1.4
		c-4.9,5.6-4.3,14.2,1.4,19.1c27.4,23.7,62.4,36.7,98.6,36.7c33.1,0,64.5-10.5,90.8-30.4c5.9-4.5,7.1-13,2.6-18.9
		C443.2,1637.1,434.7,1635.9,428.8,1640.4"/>
</g>
<g>
	<defs>
		<rect id="SVGID_1_" x="-987.3" y="167.3" width="688" height="795.5"/>
	</defs>
	<clipPath id="SVGID_2_">
		<use xlink:href="#SVGID_1_"  overflow="visible"/>
	</clipPath>
	<path clip-path="url(#SVGID_2_)" fill="#FFFFFF" d="M-545.9,756.2c-27.2,20.5-59.6,31.3-93.7,31.3c-37.4,0-73.5-13.4-101.7-37.9
		c-5.8-5-6.5-13.8-1.4-19.7c5-5.8,13.8-6.5,19.7-1.4c23.2,20,52.8,31.1,83.5,31.1c28,0,54.6-8.9,76.9-25.7
		c6.1-4.7,14.9-3.4,19.5,2.7S-539.8,751.5-545.9,756.2"/>
	<path clip-path="url(#SVGID_2_)" fill="#FFFFFF" d="M-721.8,557.4c0,13.4-10.9,24.3-24.3,24.3s-24.3-10.9-24.3-24.3
		s10.9-24.3,24.3-24.3S-721.8,544-721.8,557.4"/>
	<path clip-path="url(#SVGID_2_)" fill="#FFFFFF" d="M-516,557.4c0,13.4-10.9,24.3-24.3,24.3c-13.4,0-24.3-10.9-24.3-24.3
		s10.9-24.3,24.3-24.3C-526.9,533.1-516,544-516,557.4"/>
	<path clip-path="url(#SVGID_2_)" fill="#FFFFFF" d="M-816.7,350.7c-90.3,58.6-145.9,160.1-145.9,268
		c0,176.1,143.2,319.3,319.3,319.3C-467.2,938-324,794.8-324,618.7c0-107.3-52.6-205.5-141.2-265c-31,44-99,72.9-174.7,72.9
		C-717.9,426.6-786.7,396.5-816.7,350.7 M-643.3,962.8c-189.7,0-344-154.3-344-344c0-120.8,64.6-234.2,168.7-296l11.7-6.9l5.8,12.2
		c20.8,43.4,87.1,73.8,161.2,73.8c73.1,0,137.3-28.6,159.8-71.1l6.2-11.7l11.3,7c102.3,63.3,163.4,172.7,163.4,292.8
		C-299.2,808.4-453.6,962.8-643.3,962.8"/>
	<path clip-path="url(#SVGID_2_)" fill="#FFFFFF" d="M-475.6,347c-50.3-31.1-108.3-47.6-167.6-47.6c-57.3,0-113.5,15.4-162.7,44.6
		l-12.6-21.3c52.9-31.4,113.6-48,175.3-48c64,0,126.4,17.7,180.7,51.3L-475.6,347z"/>
	<path clip-path="url(#SVGID_2_)" fill="#FFFFFF" d="M-795.4,338c25.5,38,87.2,63.8,155.5,63.8c67.2,0,126.9-24.2,153.6-61.1
		c-47.8-27-101.8-41.3-157-41.3C-696.5,299.5-748.8,312.7-795.4,338 M-639.9,426.6c-84.7,0-158.5-35.3-183.6-87.8l-4.9-10.2l9.7-5.8
		c52.9-31.4,113.5-48,175.3-48c64,0,126.4,17.7,180.7,51.3l9.8,6.1l-5.4,10.2C-484.8,392.7-557.8,426.6-639.9,426.6"/>
</g>
<rect x="-660.2" y="206.5" fill="#FFFFFF" width="24.7" height="80.7"/>
<g>
	<defs>
		<rect id="SVGID_3_" x="-987.3" y="167.3" width="688" height="795.5"/>
	</defs>
	<clipPath id="SVGID_4_">
		<use xlink:href="#SVGID_3_"  overflow="visible"/>
	</clipPath>
	<path clip-path="url(#SVGID_4_)" fill="#FFFFFF" d="M-757.8,203.4c4.1,4,20.6,11.3,48.5,11.3c27.9,0,44.4-7.3,48.5-11.3
		c-4.1-4-20.6-11.3-48.5-11.3C-737.2,192-753.8,199.3-757.8,203.4 M-709.3,239.5c-35.6,0-73.8-11.3-73.8-36.1
		c0-24.8,38.3-36.1,73.8-36.1c35.6,0,73.8,11.3,73.8,36.1C-635.5,228.2-673.8,239.5-709.3,239.5"/>
	<path clip-path="url(#SVGID_4_)" fill="#FFFFFF" d="M-634.9,203.4c4.1,4,20.6,11.3,48.5,11.3c27.9,0,44.4-7.3,48.5-11.3
		c-4.1-4-20.6-11.3-48.5-11.3C-614.3,192-630.9,199.3-634.9,203.4 M-586.4,239.5c-35.6,0-73.8-11.3-73.8-36.1
		c0-24.8,38.3-36.1,73.8-36.1c35.6,0,73.8,11.3,73.8,36.1C-512.6,228.2-550.9,239.5-586.4,239.5"/>
</g>
</svg>
