<?xml version="1.0" encoding="utf-8"?>
<!-- Generator: Adobe Illustrator 17.1.0, SVG Export Plug-In . SVG Version: 6.00 Build 0)  -->
<!DOCTYPE svg PUBLIC "-//W3C//DTD SVG 1.0//EN" "http://www.w3.org/TR/2001/REC-SVG-20010904/DTD/svg10.dtd">
<svg version="1.0" id="Layer_1" xmlns="http://www.w3.org/2000/svg" xmlns:xlink="http://www.w3.org/1999/xlink" x="0px" y="0px"
	 viewBox="0 0 701.7 689.6" enable-background="new 0 0 701.7 689.6" xml:space="preserve">
<g>
	<path fill="#FFFFFF" d="M341.6,688.6c28.9,0,52.4-24.6,52.4-24.6H289.2C289.2,663.9,312.7,688.6,341.6,688.6z"/>
	<path fill="#FFFFFF" d="M423.4,587H264.3c-3.1,0-5.5,2.5-5.5,5.5v11.1c0,3.1,2.5,5.5,5.5,5.5h159.1c3,0,5.5-2.5,5.5-5.5v-11.1
		C429,589.5,426.5,587,423.4,587z"/>
	<path fill="#FFFFFF" d="M342.2,197.2c-84.4,0-153.1,68.7-153.1,153.1c0,56.2,30.1,106.9,78.9,133.9v34.3h-3.7
		c-3.1,0-5.5,2.5-5.5,5.5v11.1c0,3.1,2.5,5.5,5.5,5.5h159.1c3,0,5.5-2.5,5.5-5.5v-11.1c0-3.1-2.5-5.5-5.5-5.5H416v-34.1
		c49.1-27,79.3-77.8,79.3-134.2C495.3,265.8,426.6,197.2,342.2,197.2z M400,467.8l-6.2,3v45.9H290.2v-46l-6.2-3
		c-44.9-22.3-72.8-67.3-72.8-117.3c0-72.2,58.7-130.9,130.9-130.9c72.2,0,130.9,58.7,130.9,130.9C473.1,400.5,445.1,445.5,400,467.8
		z"/>
	<path fill="#FFFFFF" d="M0,385c0.8,8.8,2,17.6,3.5,26.3l152.9-26.2c-0.8-4.8-1.5-9.8-2-14.7L0,385z"/>
	<path fill="#FFFFFF" d="M546.6,352c0,5.5-0.2,9.9-0.6,14.8l154.7,11.4c0.7-8.7,1-18.8,1-26.2H546.6z"/>
	<path fill="#FFFFFF" d="M9.6,263.4l150.2,38.8c1.2-4.8,2.6-9.5,4.2-14.2L17.2,238C14.4,246.3,11.8,254.9,9.6,263.4z"/>
	<path fill="#FFFFFF" d="M681.5,233.9l-146.2,51.9c1.6,4.6,3.1,9.4,4.4,14.1l149.7-40.8C687.1,250.7,684.5,242.2,681.5,233.9z"/>
	<path fill="#FFFFFF" d="M206.8,217.2L93.7,111c-6,6.4-11.9,13.1-17.4,20L197,228.4C200.1,224.6,203.4,220.8,206.8,217.2z"/>
	<path fill="#FFFFFF" d="M603.6,107.9L491.8,215.5c3.4,3.6,6.8,7.3,9.9,11.1l119.5-98.9C615.6,120.9,609.7,114.3,603.6,107.9z"/>
	<path fill="#FFFFFF" d="M274.9,170.1L215.4,26.8c-8.1,3.4-16.2,7.1-24.1,11.1l70.1,138.4C265.8,174,270.3,171.9,274.9,170.1z"/>
	<path fill="#FFFFFF" d="M505,35.9c-7.9-3.9-16.1-7.5-24.3-10.8l-57.7,144c4.6,1.8,9.1,3.9,13.5,6L505,35.9z"/>
	<path fill="#FFFFFF" d="M356.3,155.3l4.8-155.1c-8.7-0.3-17.7-0.2-26.4,0.2l6.7,155C346.4,155.1,351.4,155.1,356.3,155.3z"/>
</g>
</svg>
