<?xml version="1.0" encoding="utf-8"?>
<!-- Generator: Adobe Illustrator 17.1.0, SVG Export Plug-In . SVG Version: 6.00 Build 0)  -->
<!DOCTYPE svg PUBLIC "-//W3C//DTD SVG 1.0//EN" "http://www.w3.org/TR/2001/REC-SVG-20010904/DTD/svg10.dtd">
<svg version="1.0" id="Layer_1" xmlns="http://www.w3.org/2000/svg" xmlns:xlink="http://www.w3.org/1999/xlink" x="0px" y="0px"
	 viewBox="0 0 690 689.6" enable-background="new 0 0 690 689.6" xml:space="preserve">
<g>
	<path fill="#FFFFFF" d="M345,689.6c-190.2,0-345-154.8-345-345c0-190.2,154.8-345,345-345s345,154.8,345,345
		C690,534.9,535.2,689.6,345,689.6 M345,25.6c-175.9,0-319,143.1-319,319c0,175.9,143.1,319,319,319s319-143.1,319-319
		C664,168.7,520.9,25.6,345,25.6"/>
	<path fill="#FFFFFF" d="M443.3,195.8L226.6,404.5l98.2-18.2l27.1,96.1L443.3,195.8z M340.9,360.3c-6.6-4.1-8.6-12.8-4.5-19.4
		c4.1-6.6,12.8-8.6,19.4-4.5c6.6,4.1,8.6,12.8,4.5,19.4C356.2,362.4,347.5,364.4,340.9,360.3"/>
</g>
<polygon fill="#FFFFFF" points="348.2,144.5 322.2,118.5 348.2,92.5 374.2,118.5 "/>
<polygon fill="#FFFFFF" points="99.6,373.7 71,345.1 99.6,316.6 128.1,345.1 "/>
<polygon fill="#FFFFFF" points="593.4,373.7 564.8,345.1 593.4,316.6 622,345.1 "/>
<polygon fill="#FFFFFF" points="353.1,601.4 327.1,575.4 353.1,549.4 379.1,575.4 "/>
</svg>
