<?xml version="1.0" encoding="utf-8"?>
<!-- Generator: Adobe Illustrator 17.1.0, SVG Export Plug-In . SVG Version: 6.00 Build 0)  -->
<!DOCTYPE svg PUBLIC "-//W3C//DTD SVG 1.0//EN" "http://www.w3.org/TR/2001/REC-SVG-20010904/DTD/svg10.dtd">
<svg version="1.0" id="Layer_1" xmlns="http://www.w3.org/2000/svg" xmlns:xlink="http://www.w3.org/1999/xlink" x="0px" y="0px"
	 viewBox="0 0 686.1 689.6" enable-background="new 0 0 686.1 689.6" xml:space="preserve">
<g>
	<path fill="#FFFFFF" d="M391.2,686.1h-96.2c-6.5,0-12.7-2.3-17.9-6.6c-5.5-4.6-8.8-10.5-9.4-17l-10.7-71.3
		c-8.4-2.9-17.4-6.6-26.9-11.2l-54.7,41.2c-3.4,3.1-9.1,6.4-18,6.4c-6.6,0-12.7-2.3-18.3-6.8c-72.9-67.2-78.9-82.3-78.9-92
		c0-5.5,1.9-11.1,5.7-16.6c3.7-5.1,10.7-14.2,21.7-28c8-10.1,14.6-18.6,19.7-25.4c-5.3-10.7-9.8-21-13.2-30.7l-71.6-11.3
		c-5.9-0.5-11.7-3.7-16.1-9.1c-4.1-5-6.3-11.1-6.3-17.6v-95.8c0-6,2-11.8,5.9-17.1c5.5-7.5,12-9.7,16.5-10.1L95,255.9
		c3.1-8.7,7-18,11.7-27.7c-11-15.1-25.1-32.9-41.9-53L64,174c-3.7-5.7-5.5-11.3-5.5-16.7c0-6.9,2.3-13.2,6.5-18.1
		c7.3-10.1,21.7-25.6,43-46.7c28.7-28.2,40.4-33.9,49.2-33.9c6.2,0,12.2,1.9,17.6,5.8l54.1,42.3c8.5-4.1,17.6-7.9,27.5-11.4
		c3.7-34.2,7.4-58.4,11.5-73.9c4-13.6,13.8-21.3,27-21.3h96.2c6.5,0,12.7,2.3,17.9,6.6c5.5,4.6,8.7,10.4,9.4,16.9l10.7,71.4
		c8.4,2.9,17.5,6.7,26.9,11.2l55.2-41.6c8.3-7.3,24.2-8.5,35.7,0.7c72.9,67.3,79,82.4,79,92c0,5.6-1.9,11.2-5.8,16.6
		c-4.4,5.9-11.7,15.3-22.2,28.5c-7.8,9.9-14.2,18.3-18.9,24.9c5.2,11.3,9.5,21.6,12.8,30.6l71.6,10.8c6.6,1.3,12,4.6,16.2,9.6
		c4.1,5,6.3,11.1,6.3,17.6v95.8c0,6-2,11.7-5.9,17.1c-5.5,7.5-12,9.7-16.5,10.2l-72.6,11.3c-3.1,8.7-7,18-11.7,27.6
		c11,15.1,25.1,32.9,41.9,53c4.5,6.3,6.4,12.1,6.4,17.9c0,8.6-3.4,14.2-6.5,17.6c-8.4,10.8-22.5,26.2-43.3,47
		c-28.4,28.4-40.2,34.3-49,34.3c-6.3,0-12.2-1.9-17.7-5.8L457,579.5c-8.9,4.2-18.1,8-27.4,11.1c-3.6,34.1-7.4,58.5-11.4,74.2
		C414.1,678.5,404.4,686.1,391.2,686.1 M227.4,552.2l6.6,3.4c13.5,6.9,25.8,12,36.7,15.2l7.2,2.1l13,86.6c0.1,0.8,0.5,1.2,1.1,1.8
		c1.2,1,2,1.1,2.8,1.1h96.2c2,0,3,0,4.2-3.9c3.9-15.1,7.8-41.6,11.5-78.1l0.8-7.8l7.6-2.3c13-3.9,25.8-9,37.8-15.3l6.7-3.5
		l65.5,51.3c1.4,1,2.7,1.1,3.6,1.1c0-0.1,7.4-2.5,32.3-27.3c20-20.1,34.1-35.2,41.7-45.1l1-1.2c0,0,0.2-0.4,0.2-1.5
		c0-1.2-0.8-2.6-1.5-3.6c-18.7-22.3-34.6-42.6-46.5-59.4l-4.1-5.8l3.3-6.4c6.9-13.5,12.2-26.1,15.8-37.5l2.2-7l87.4-13.5
		c0.1-0.1,0.3-0.4,0.6-0.8c0.9-1.2,1.3-2.2,1.3-3.1v-95.8c0-1-0.2-1.8-0.9-2.6c-0.9-1.1-1.5-1.3-2-1.4l-85.3-12.9l-2.3-6.9
		c-3.6-11.2-9.3-25-17-41L552,225l3.8-5.6c5.3-7.8,13.1-18.2,23.8-31.7c10.3-13,17.4-22.2,21.5-27.7c0.7-1,1-1.8,1.2-2.2
		c-1.7-4.2-11.7-20.2-70.6-74.6c-1.3-1-2.4-1-2.8-1c-1.8,0-2.3,0.5-2.6,0.7l-67.6,51l-6.6-3.4c-13.4-6.9-25.8-12-36.8-15.2l-7.2-2.1
		l-13-86.6c-0.1-0.9-0.9-1.6-1.1-1.7c-1.2-1-2.1-1.1-2.8-1.1h-96.2c-2,0-3,0-4.2,3.9c-3.9,14.9-7.8,41.1-11.5,77.6l-0.8,7.7
		l-7.3,2.4c-14.2,4.6-27,9.9-38,15.8l-6.8,3.6l-65.6-51.3c-1.4-1-2.7-1.1-3.6-1.1c0,0.1-7.5,2.4-32.6,27.1
		c-20.2,19.9-34,34.9-41.2,44.6c-0.9,1-1.4,1.6-1.4,3.4c0,0,0,1.1,1.4,3.4c19.2,23,34.9,43,46.6,59.6l4.2,5.9l-3.3,6.4
		c-6.9,13.6-12.3,26.2-15.8,37.5l-2.2,7l-87.4,13.5c-0.1,0.1-0.3,0.3-0.6,0.8c-0.9,1.2-1.3,2.2-1.3,3.1v95.8c0,1.1,0.2,1.8,0.9,2.6
		l0.3,0l1.2,0.7L112,407l2.2,7c3.9,12.4,9.7,26,17.3,40.5l3.4,6.5l-4.3,5.9c-5.6,7.8-13.9,18.5-24.6,32
		c-10.6,13.3-17.6,22.4-20.9,26.9c-0.8,1.2-1.2,2-1.3,2.5c1.6,4.2,11.7,20.3,70.6,74.6c1.3,1,2.4,1,2.8,1c1.6,0,2.1-0.3,2.1-0.3
		l1.1-1L227.4,552.2z"/>
	<path fill="#FFFFFF" d="M343,487.3c-39.6,0-74-14.2-102-42.3c-28.1-28-42.3-62.4-42.3-102s14.2-74,42.3-102
		c28-28,62.4-42.3,102-42.3c39.7,0,74,14.2,102,42.3c28.1,28.1,42.3,62.4,42.3,102c0,39.7-14.2,74-42.3,102
		C417,473.1,382.7,487.3,343,487.3 M343,222.4c-33.6,0-61.5,11.6-85.3,35.3c-23.8,23.8-35.4,51.7-35.4,85.3
		c0,33.6,11.6,61.5,35.4,85.3c23.8,23.8,51.7,35.4,85.3,35.4c33.6,0,61.5-11.6,85.3-35.4c23.8-23.8,35.4-51.7,35.4-85.3
		c0-33.6-11.6-61.5-35.4-85.3C404.6,233.9,376.7,222.4,343,222.4"/>
</g>
</svg>
