<?xml version="1.0" encoding="utf-8"?>
<!-- Generator: Adobe Illustrator 17.1.0, SVG Export Plug-In . SVG Version: 6.00 Build 0)  -->
<!DOCTYPE svg PUBLIC "-//W3C//DTD SVG 1.0//EN" "http://www.w3.org/TR/2001/REC-SVG-20010904/DTD/svg10.dtd">
<svg version="1.0" id="Layer_1" xmlns="http://www.w3.org/2000/svg" xmlns:xlink="http://www.w3.org/1999/xlink" x="0px" y="0px"
	 viewBox="0 0 700 700" enable-background="new 0 0 700 700" xml:space="preserve">
<g>
	<path fill="#FFFFFF" d="M354.5,1158.6c-50,52.2-122.7,10.4-122.7,10.4c0.1-14.9,3.3-53.2,29.1-81.1c20.7-22.3,52.1-33.7,93.3-33.7
		c41.1,0,72.4,11.3,93.3,33.7c25.4,27.2,29.2,64.5,29.7,80.3C381.6,1207,354.5,1158.6,354.5,1158.6 M131.5,906.2l54.6,25.4
		c4.7,38.8,37.8,68.9,77.9,68.9c41.1,0,74.8-31.7,78.2-72c3.9-2,8.7-3,13.8-0.6c3.1,40.5,36.9,72.6,78.2,72.6
		c41,0,74.7-31.6,78.2-71.7l55-25.7c9.7,25.6,15.1,53.4,15.1,82.3c0,48.3-14.8,93.1-40.1,130.4c-24,23.6-40.8,4.6-48.8-9.1
		c-5.5-13.2-13.3-26.5-24.5-38.6c-26.6-28.7-65.3-43.3-114.9-43.3c-49.8,0-88.5,14.5-114.9,43.3c-8.1,8.8-14.4,18.2-19.3,27.8v-0.1
		c0,0-23.9,51.5-61.4,21c-25.7-37.4-40.9-82.7-40.9-131.4C117.5,957.7,122.5,931,131.5,906.2 M319.8,905.6V922
		c0,30.8-25.1,55.8-55.8,55.8s-55.8-25.1-55.8-55.8v-16.4H319.8z M490,905.6V922c0,30.8-25.1,55.8-55.8,55.8
		c-30.8,0-55.8-25.1-55.8-55.8v-16.4H490z M350,753c90.9,0,169.7,52.4,207.9,128.6l-45.2,21.1v-19.8h-157v21.2
		c-4.6-1.1-9-0.7-13.2,0.5v-21.7h-157v20.6l-44.1-20.5C179.3,806.2,258.6,753,350,753 M350,735.1c-138.1,0-250.5,112.3-250.5,250.5
		S211.9,1236,350,1236s250.5-112.3,250.5-250.5S488.1,735.1,350,735.1"/>
	<path fill="#FFFFFF" d="M262.2,958.6c9.8,0,17.7-7.9,17.7-17.7s-7.9-17.7-17.7-17.7c-9.8,0-17.7,7.9-17.7,17.7
		C244.5,950.7,252.5,958.6,262.2,958.6"/>
	<path fill="#FFFFFF" d="M435.6,958.6c9.8,0,17.7-7.9,17.7-17.7s-7.9-17.7-17.7-17.7s-17.7,7.9-17.7,17.7S425.8,958.6,435.6,958.6"
		/>
	<path fill="#FFFFFF" d="M411.3,1093.4c-15.7,11.9-34.5,18.1-54.2,18.1c-21.6,0-42.5-7.8-58.9-21.9c-4.1-3.6-10.3-3.1-13.9,1
		c-3.6,4.1-3.1,10.3,1,13.9c19.9,17.2,45.4,26.7,71.7,26.7c24.1,0,46.9-7.6,66-22.1c4.3-3.3,5.2-9.5,1.9-13.7
		C421.7,1091,415.5,1090.2,411.3,1093.4"/>
</g>
<g>
	<g>
		<defs>
			<rect id="SVGID_1_" x="99.9" y="121.6" width="500.2" height="578.4"/>
		</defs>
		<clipPath id="SVGID_2_">
			<use xlink:href="#SVGID_1_"  overflow="visible"/>
		</clipPath>
		<path clip-path="url(#SVGID_2_)" fill="#FFFFFF" d="M420.8,549.8c-19.8,14.9-43.3,22.8-68.1,22.8c-27.2,0-53.4-9.7-73.9-27.6
			c-4.2-3.6-4.7-10-1-14.3c3.6-4.2,10-4.7,14.3-1c16.9,14.5,38.4,22.6,60.7,22.6c20.4,0,39.7-6.5,55.9-18.7c4.4-3.4,10.8-2.5,14.2,2
			S425.2,546.4,420.8,549.8"/>
	</g>
	<g>
		<defs>
			<rect id="SVGID_3_" x="99.9" y="121.6" width="500.2" height="578.4"/>
		</defs>
		<clipPath id="SVGID_4_">
			<use xlink:href="#SVGID_3_"  overflow="visible"/>
		</clipPath>
		<path clip-path="url(#SVGID_4_)" fill="#FFFFFF" d="M292.9,405.3c0,9.7-7.9,17.7-17.7,17.7c-9.7,0-17.7-7.9-17.7-17.7
			c0-9.7,7.9-17.7,17.7-17.7C285,387.6,292.9,395.5,292.9,405.3"/>
	</g>
	<g>
		<defs>
			<rect id="SVGID_5_" x="99.9" y="121.6" width="500.2" height="578.4"/>
		</defs>
		<clipPath id="SVGID_6_">
			<use xlink:href="#SVGID_5_"  overflow="visible"/>
		</clipPath>
		<path clip-path="url(#SVGID_6_)" fill="#FFFFFF" d="M442.5,405.3c0,9.7-7.9,17.7-17.7,17.7c-9.7,0-17.7-7.9-17.7-17.7
			c0-9.7,7.9-17.7,17.7-17.7C434.6,387.6,442.5,395.5,442.5,405.3"/>
	</g>
	<g>
		<defs>
			<rect id="SVGID_7_" x="99.9" y="121.6" width="500.2" height="578.4"/>
		</defs>
		<clipPath id="SVGID_8_">
			<use xlink:href="#SVGID_7_"  overflow="visible"/>
		</clipPath>
		<path clip-path="url(#SVGID_8_)" fill="#FFFFFF" d="M223.9,255c-65.7,42.6-106.1,116.4-106.1,194.8C117.8,577.9,222,682,350,682
			s232.1-104.1,232.1-232.1c0-78-38.2-149.4-102.7-192.7c-22.5,32-72,53-127,53C295.8,310.2,245.7,288.3,223.9,255 M350,700
			C212.1,700,99.9,587.8,99.9,449.9c0-87.8,47-170.3,122.7-215.2l8.5-5l4.2,8.9c15.1,31.6,63.3,53.7,117.2,53.7
			c53.1,0,99.8-20.8,116.2-51.7l4.5-8.5l8.2,5.1c74.4,46,118.8,125.6,118.8,212.9C600.2,587.7,487.9,700,350,700"/>
	</g>
	<g>
		<defs>
			<rect id="SVGID_9_" x="99.9" y="121.6" width="500.2" height="578.4"/>
		</defs>
		<clipPath id="SVGID_10_">
			<use xlink:href="#SVGID_9_"  overflow="visible"/>
		</clipPath>
		<path clip-path="url(#SVGID_10_)" fill="#FFFFFF" d="M471.9,252.3c-36.6-22.6-78.7-34.6-121.9-34.6c-41.7,0-82.5,11.2-118.3,32.4
			l-9.2-15.5c38.5-22.8,82.6-34.9,127.5-34.9c46.5,0,91.9,12.9,131.4,37.3L471.9,252.3z"/>
	</g>
	<g>
		<defs>
			<rect id="SVGID_11_" x="99.9" y="121.6" width="500.2" height="578.4"/>
		</defs>
		<clipPath id="SVGID_12_">
			<use xlink:href="#SVGID_11_"  overflow="visible"/>
		</clipPath>
		<path clip-path="url(#SVGID_12_)" fill="#FFFFFF" d="M239.4,245.7c18.5,27.6,63.4,46.4,113.1,46.4c48.9,0,92.3-17.6,111.7-44.4
			c-34.8-19.6-74-30-114.1-30C311.3,217.8,273.3,227.3,239.4,245.7 M352.5,310.2c-61.6,0-115.2-25.7-133.5-63.8l-3.6-7.4l7.1-4.2
			c38.5-22.8,82.5-34.9,127.5-34.9c46.5,0,91.9,12.9,131.4,37.3l7.1,4.4l-3.9,7.4C465.2,285.5,412.2,310.2,352.5,310.2"/>
	</g>
</g>
<rect x="337.7" y="150.1" fill="#FFFFFF" width="18" height="58.7"/>
<g>
	<g>
		<defs>
			<rect id="SVGID_13_" x="99.9" y="121.6" width="500.2" height="578.4"/>
		</defs>
		<clipPath id="SVGID_14_">
			<use xlink:href="#SVGID_13_"  overflow="visible"/>
		</clipPath>
		<path clip-path="url(#SVGID_14_)" fill="#FFFFFF" d="M266.7,147.9c3,2.9,15,8.2,35.3,8.2s32.3-5.3,35.3-8.2
			c-3-2.9-15-8.2-35.3-8.2C281.7,139.6,269.7,144.9,266.7,147.9 M302,174.1c-25.9,0-53.7-8.2-53.7-26.2s27.8-26.2,53.7-26.2
			c25.9,0,53.7,8.2,53.7,26.2S327.8,174.1,302,174.1"/>
	</g>
	<g>
		<defs>
			<rect id="SVGID_15_" x="99.9" y="121.6" width="500.2" height="578.4"/>
		</defs>
		<clipPath id="SVGID_16_">
			<use xlink:href="#SVGID_15_"  overflow="visible"/>
		</clipPath>
		<path clip-path="url(#SVGID_16_)" fill="#FFFFFF" d="M356.1,147.9c3,2.9,15,8.2,35.3,8.2s32.3-5.3,35.3-8.2
			c-3-2.9-15-8.2-35.3-8.2C371.1,139.6,359,144.9,356.1,147.9 M391.4,174.1c-25.9,0-53.7-8.2-53.7-26.2s27.8-26.2,53.7-26.2
			c25.9,0,53.7,8.2,53.7,26.2C445,165.9,417.2,174.1,391.4,174.1"/>
	</g>
</g>
</svg>
